<svg xmlns="http://www.w3.org/2000/svg" viewBox="0 0 720 400"><defs><linearGradient id="b" x1="0" y1="0" x2="1" y2="1"><stop stop-color="#0f2032"/><stop offset="1" stop-color="#3f556c"/></linearGradient><filter id="d"><feDropShadow dy="12" stdDeviation="12" flood-opacity=".4"/></filter></defs><rect width="720" height="400" fill="url(#b)"/><g filter="url(#d)"><rect x="150" y="55" width="310" height="300" rx="22" fill="#eef3f6"/><rect x="245" y="30" width="120" height="48" rx="18" fill="#0b69c7"/><g stroke="#9aa8b5" stroke-width="8"><path d="M205 125h195M205 180h195M205 235h195M205 290h195"/></g><g fill="none" stroke="#0b69c7" stroke-width="9"><path d="m195 122 18 18 32-38M195 177l18 18 32-38M195 232l18 18 32-38"/></g><path d="M495 105l72 72-155 155-78 6 6-78Z" fill="#d9e2e8"/><path d="M505 95l82 82" stroke="#0b69c7" stroke-width="24"/></g></svg>